<?xml version="1.0" encoding="iso-8859-1"?>
<!-- Uploaded to: SVG Repo, www.svgrepo.com, Generator: SVG Repo Mixer Tools -->
<svg height="800px" width="800px" version="1.1" id="Layer_1" xmlns="http://www.w3.org/2000/svg" xmlns:xlink="http://www.w3.org/1999/xlink" 
	 viewBox="0 0 512 512" xml:space="preserve">
<path style="fill:#507C5C;" d="M394.873,481.199c-24.487,0-48.542-6.224-70.193-18.244c-22.75-12.629-41.426-30.913-54.463-53.217
	H14.813C6.632,409.738,0,403.106,0,394.925V45.614c0-8.181,6.632-14.813,14.813-14.813h482.374c8.181,0,14.813,6.632,14.813,14.813
	v349.311c0,8.181-6.632,14.813-14.813,14.813H391.886c-8.181,0-14.813-6.632-14.813-14.813c0-8.181,6.632-14.813,14.813-14.813
	h90.488V60.427H29.626v319.685h249.401c5.602,0,10.726,3.161,13.24,8.168c21.071,41.983,64.953,66.669,111.833,62.924
	c8.149-0.652,15.296,5.426,15.949,13.581c0.655,8.155-5.426,15.296-13.581,15.949C402.598,481.045,398.728,481.199,394.873,481.199z
	"/>
<circle style="fill:#CFF09E;" cx="124.532" cy="226.372" r="40.336"/>
<path style="fill:#507C5C;" d="M124.535,281.523c-30.411,0-55.151-24.741-55.151-55.151s24.741-55.151,55.151-55.151
	s55.152,24.741,55.152,55.151S154.946,281.523,124.535,281.523z M124.535,200.846c-14.075,0-25.526,11.45-25.526,25.526
	s11.45,25.526,25.526,25.526s25.526-11.45,25.526-25.526S138.61,200.846,124.535,200.846z"/>
<circle style="fill:#CFF09E;" cx="255.997" cy="226.372" r="40.336"/>
<path style="fill:#507C5C;" d="M256,281.523c-30.411,0-55.151-24.741-55.151-55.151S225.589,171.22,256,171.22
	s55.151,24.741,55.151,55.151S286.411,281.523,256,281.523z M256,200.846c-14.075,0-25.526,11.45-25.526,25.526
	s11.45,25.526,25.526,25.526c14.075,0,25.526-11.45,25.526-25.526S270.075,200.846,256,200.846z"/>
<circle style="fill:#CFF09E;" cx="387.462" cy="226.372" r="40.336"/>
<path style="fill:#507C5C;" d="M387.465,281.523c-30.411,0-55.151-24.741-55.151-55.151s24.741-55.151,55.151-55.151
	s55.151,24.741,55.151,55.151S417.876,281.523,387.465,281.523z M387.465,200.846c-14.075,0-25.526,11.45-25.526,25.526
	s11.45,25.526,25.526,25.526c14.075,0,25.526-11.45,25.526-25.526S401.54,200.846,387.465,200.846z"/>
</svg>